<svg _ngcontent-ng-c650446261="" xmlns="http://www.w3.org/2000/svg" width="50" height="50" viewBox="0 0 50 50" fill="none"><path _ngcontent-ng-c650446261="" d="M33.3335 19.7919C33.3321 18.0667 31.9335 16.6686 30.2087 16.6667H20.8335V22.9167H30.2087C31.9335 22.9153 33.3321 21.5167 33.3335 19.7919Z" fill="#FFAB2D"></path><path _ngcontent-ng-c650446261="" d="M20.8335 33.3333H30.2087C31.9344 33.3333 33.3335 31.9343 33.3335 30.2086C33.3335 28.4824 31.9344 27.0833 30.2087 27.0833H20.8335V33.3333Z" fill="#FFAB2D"></path><path _ngcontent-ng-c650446261="" d="M25 0C11.1929 0 0 11.1929 0 25C0 38.8071 11.1929 50 25 50C38.8071 50 50 38.8071 50 25C49.9842 11.1995 38.8005 0.0158038 25 0ZM37.5003 30.3569C37.4954 34.3003 34.3003 37.4954 30.3575 37.4997V39.2856C30.3575 40.2719 29.5575 41.0714 28.5717 41.0714C27.5853 41.0714 26.7858 40.2719 26.7858 39.2856V37.4997H23.2147V39.2856C23.2147 40.2719 22.4147 41.0714 21.4289 41.0714C20.4425 41.0714 19.6431 40.2719 19.6431 39.2856V37.4997H14.2861C13.2997 37.4997 12.5003 36.7003 12.5003 35.7144C12.5003 34.7281 13.2997 33.9286 14.2861 33.9286H16.0714V16.0714H14.2861C13.2997 16.0714 12.5003 15.2719 12.5003 14.2856C12.5003 13.2992 13.2997 12.4997 14.2861 12.4997H19.6431V10.7144C19.6431 9.72807 20.4425 8.92861 21.4289 8.92861C22.4153 8.92861 23.2147 9.72807 23.2147 10.7144V12.4997H26.7858V10.7144C26.7858 9.72807 27.5853 8.92861 28.5717 8.92861C29.558 8.92861 30.3575 9.72807 30.3575 10.7144V12.4997C34.2856 12.4834 37.4834 15.654 37.5003 19.582C37.509 21.6621 36.6071 23.642 35.0316 25C36.5924 26.3428 37.4932 28.2975 37.5003 30.3569Z" fill="#FFAB2D"></path></svg>
