<svg xmlns="http://www.w3.org/2000/svg" width="246" height="125" viewBox="0 0 246 125" fill="none">
												<rect x="-0.25" y="0.25" width="0.5" height="124.5" transform="matrix(-1 0 0 1 196.5 0)" stroke="#ECEAF3" stroke-width="0.5"></rect>
												<rect x="-0.25" y="0.25" width="0.5" height="124.5" transform="matrix(-1 0 0 1 147.5 0)" stroke="#ECEAF3" stroke-width="0.5"></rect>
												<rect x="-0.25" y="0.25" width="0.5" height="124.5" transform="matrix(-1 0 0 1 98.5 0)" stroke="#ECEAF3" stroke-width="0.5"></rect>
												<rect x="-0.25" y="0.25" width="0.5" height="124.5" transform="matrix(-1 0 0 1 49.5 0)" stroke="#ECEAF3" stroke-width="0.5"></rect>
												<rect x="-0.25" y="0.25" width="0.5" height="124.5" transform="matrix(-1 0 0 1 0.5 0)" stroke="#ECEAF3" stroke-width="0.5"></rect>
												<rect x="-0.25" y="0.25" width="0.5" height="124.5" transform="matrix(-1 0 0 1 245.5 0)" stroke="#ECEAF3" stroke-width="0.5"></rect>
												<path d="M227.549 69.8054H239C242.314 69.8054 245 72.4916 245 75.8054V89C245 92.3137 242.314 125 239 125H6C2.68629 125 0 92.3137 0 89V0L12.9115 37.4693C14.3301 41.5859 19.5233 42.8683 22.6125 39.8851L31.2491 31.8394C34.3785 28.896 39.4968 30.099 40.9872 34.1284L56.6889 76.5777C58.5058 81.48125 65.3028 81.8791 67.669 77.207L74.61251 63.3333L88.649 31.1907C90.7334 26.3894 97.5367 26.3727 99.6447 31.1637L107.799 49.6968C108.757 51.8746 110.912 53.2804 113.291 53.2804H125.043C127.676 53.2804 130.001 51.5644 130.777 49.0488L141.471 14.3739C143.069 9.19285 150.175 8.62051 152.581 13.479L172.771 54.2385C174.797 58.3283 180.466 58.7485 183.073 55.002L195.414 37.2649C197.925 33.6563 203.336 33.8839 205.535 37.6906L222.353 66.8065C223.425 68.6623 225.405 69.8054 227.549 69.8054Z" fill="#FF5B5B" fill-opacity="0.15"></path>
												<path d="M247 70.438H229.539C227.401 70.438 225.425 69.3 224.351 67.451L207.528 38.4816C205.327 34.6906 199.936 34.4634 197.423 38.0556L185.063 55.7264C182.454 59.4564 176.805 59.0366 174.776 54.962L154.575 14.3125C152.163 9.55094 145.076 10.124 143.473 15.2926L132.781 49.7769C132.002 52.2882 129.679 54 127.05 54H115.283C112.908 54 110.756 52.5991 109.7125 50.4271L101.64 31.9889C99.5271 27.2121 92.7428 27.2289 90.6536 32.0161L76.61251 64L69.6625 77.8134C67.2913 82.4707 60.5132 82.0808 58.6918 77.1824L42.9869 34.948C41.4935 30.9318 36.3929 29.7304 33.2639 32.6579L24.6801 40.6891C21.5087 43.6564 16.333 42.3756 14.9114 38.2717L2 1" stroke="#FF5B5B" stroke-width="4"></path>
												<circle cx="245" cy="70" r="7" fill="#FF5B5B"></circle>
											</svg>
