<svg xmlns="http://www.w3.org/2000/svg" width="50" height="50" viewBox="0 0 50 50" fill="none">
													<path d="M25.7918 28.9028C25.2833 29.0721 24.7167 29.0721 24.2082 28.9028L18.75 27.0833L25 37.5L31.25 27.0833L25.7918 28.9028Z" fill="#00ADA3"></path>
													<path d="M25 25L31.25 22.5001L25 12.5L18.75 22.5001L25 25Z" fill="#00ADA3"></path>
													<path d="M25 0C11.1929 0 0 11.1929 0 25C0 38.8071 11.1929 50 25 50C38.8071 50 50 38.8071 50 25C49.9847 11.1995 38.8005 0.0152589 25 0ZM35.5259 24.0131L26.5973 41.8703C26.1564 42.7526 25.0834 43.1101 24.2016 42.6692C23.8556 42.4965 23.5755 42.2164 23.4027 41.8703L14.4741 24.0131C14.1967 23.4561 14.2283 22.7951 14.5575 22.267L23.4861 7.98147C24.0796 7.1455 25.2376 6.94823 26.0736 7.54169C26.2441 7.66267 26.3929 7.8109 26.5139 7.98147L35.442 22.267C35.7717 22.7951 35.8033 23.4561 35.5259 24.0131Z" fill="#00ADA3"></path>
												</svg>
