<svg xmlns="http://www.w3.org/2000/svg" width="50" height="50" viewBox="0 0 50 50" fill="none">
													<path d="M25 0C11.1929 0 0 11.1929 0 25C0 38.8071 11.1929 50 25 50C38.8071 50 50 38.8071 50 25C49.9842 11.1995 38.8005 0.0158038 25 0ZM33.9286 37.5003H19.6431C18.6567 37.5003 17.8572 36.7008 17.8572 35.7144C17.8572 35.63 17.8632 35.5455 17.8752 35.4616L19.2191 26.0529L16.5046 26.7319C16.3629 26.7678 16.2174 26.7858 16.0714 26.7858C15.085 26.7847 14.2866 25.9847 14.2872 24.9984C14.2883 24.1798 14.8452 23.467 15.6392 23.2676L19.764 22.2365L21.4463 10.461C21.5858 9.48447 22.4905 8.80654 23.467 8.94605C24.4436 9.08556 25.1215 9.99019 24.982 10.9668L23.5052 21.3014L29.9243 19.6965C30.8796 19.4529 31.8512 20.03 32.0943 20.9853C32.3379 21.9406 31.7608 22.9123 30.8055 23.1559C30.8 23.1569 30.7946 23.1586 30.7891 23.1597L22.9591 25.1172L21.7008 33.9286H33.9286C34.915 33.9286 35.7144 34.7281 35.7144 35.7144C35.7144 36.7003 34.915 37.5003 33.9286 37.5003Z" fill="#374C98"></path>
												</svg>
