<svg xmlns="http://www.w3.org/2000/svg" width="246" height="125" viewBox="0 0 246 125" fill="none">
												<rect x="-0.25" y="0.25" width="0.5" height="124.5" transform="matrix(-1 0 0 1 196.5 0)" stroke="#ECEAF3" stroke-width="0.5"></rect>
												<rect x="-0.25" y="0.25" width="0.5" height="124.5" transform="matrix(-1 0 0 1 147.5 0)" stroke="#ECEAF3" stroke-width="0.5"></rect>
												<rect x="-0.25" y="0.25" width="0.5" height="124.5" transform="matrix(-1 0 0 1 98.5 0)" stroke="#ECEAF3" stroke-width="0.5"></rect>
												<rect x="-0.25" y="0.25" width="0.5" height="124.5" transform="matrix(-1 0 0 1 49.5 0)" stroke="#ECEAF3" stroke-width="0.5"></rect>
												<rect x="-0.25" y="0.25" width="0.5" height="124.5" transform="matrix(-1 0 0 1 0.5 0)" stroke="#ECEAF3" stroke-width="0.5"></rect>
												<rect x="-0.25" y="0.25" width="0.5" height="124.5" transform="matrix(-1 0 0 1 245.5 0)" stroke="#ECEAF3" stroke-width="0.5"></rect>
												<path d="M205.823 78.211L246 0V124C246 127.314 243.314 130 240 130H5.99998C2.68628 130 -1.52588e-05 127.314 -1.52588e-05 124V89.5191C-1.52588e-05 88.2988 0.372086 87.1075 1.06664 86.1041L4.81189 80.6937C6.64693 78.0427 10.2489 77.3159 12.9683 79.0479L25.6354 87.1152C29.1279 89.3395 33.7704 87.4413 34.704 83.4073L44.5318 40.9427C45.6964 35.9108 52.2518 34.6039 55.2571 38.8045L62.5513 49L81.7182 78.823L93.2947 98.8715C95.515 102.717 100.998 102.902 103.472 99.2152L118.107 77.4128C120.612 73.6811 126.179 73.9268 128.346 77.8646L147.924 113.45C150.406 117.961 157.043 117.457 158.814 112.622L173.333 73.0052C175.117 68.1366 181.82 67.6709 184.261 72.246L190.464 83.8748C192.458 87.6143 197.596 88.1632 200.335 84.9295L205.064 79.3479C205.36 78.9991 205.614 78.6176 205.823 78.211Z" fill="#2ED6A3" fill-opacity="0.15"></path>
												<path d="M248 1.5L207.833 82.1728C207.618 82.6047 207.351 83.009 207.04 83.377L202.336 88.9294C199.596 92.1631 194.458 91.6143 192.464 87.8748L186.261 76.246C183.821 71.6709 177.118 72.1366 175.333 77.0052L160.815 116.622C159.043 121.457 152.406 121.961 149.924 117.45L130.346 81.8646C128.18 77.9268 122.612 77.6811 120.107 81.4128L105.473 103.215C102.998 106.902 97.5153 106.717 95.295 102.871L83.7184 82.8229L64.5515 53L57.2573 42.8045C54.2521 38.6038 47.6966 39.9108 46.5321 44.9427L36.7043 87.4073C35.7706 91.4413 31.1282 93.3395 27.6357 91.1152L14.9686 83.0478C12.2492 81.3159 8.64717 82.0427 6.81213 84.6936L2.00021 91.6451" stroke="#00A389" stroke-width="4"></path>
												<circle cx="246" cy="7" r="7" fill="#00A389"></circle>
											</svg>
