<svg xmlns="http://www.w3.org/2000/svg" width="50" height="50" viewBox="0 0 50 50" fill="none">
											<path d="M21 42C25.1534 42 29.2135 40.7685 32.667 38.4608C36.1204 36.1533 38.8121 32.8736 40.4014 29.0364C41.991 25.1991 42.4069 20.9767 41.5965 16.9031C40.7861 12.8295 38.7862 9.08768 35.8492 6.15076C32.9123 3.21386 29.1705 1.21381 25.0969 0.403518C21.0233 -0.40677 16.8009 0.00909841 12.9636 1.59854C9.12641 3.18798 5.84666 5.8796 3.53914 9.33305C1.23163 12.7865 0 16.8466 0 21C0 26.5695 2.21249 31.911 6.15075 35.8493C10.089 39.7875 15.4305 42 21 42Z" fill="#23292F"></path>
											<path d="M28.6837 12.0563H31.8412L25.275 18.6075C24.1338 19.7474 22.5868 20.3878 20.9737 20.3878C19.3607 20.3878 17.8137 19.7474 16.6725 18.6075L10.125 12.0563H13.2787L18.2662 17.0325C18.9891 17.7545 19.969 18.1601 20.9906 18.1601C22.0123 18.1601 22.9922 17.7545 23.715 17.0325L28.6837 12.0563Z" fill="white"></path>
											<path d="M13.2637 30.2775H10.125L16.7137 23.685C17.8549 22.5451 19.402 21.9048 21.015 21.9048C22.628 21.9048 24.175 22.5451 25.3162 23.685L31.92 30.2775H28.7662L23.7412 25.26C23.0184 24.538 22.0385 24.1324 21.0169 24.1324C19.9952 24.1324 19.0153 24.538 18.2925 25.26L13.2637 30.2775Z" fill="white"></path>
										</svg>