<svg xmlns="http://www.w3.org/2000/svg" width="32" height="32" viewBox="0 0 32 32" fill="none">
										<path d="M15.9997 1.33335C13.0989 1.33335 10.2632 2.19353 7.85132 3.80513C5.4394 5.41672 3.55953 7.70734 2.44945 10.3873C1.33936 13.0673 1.04891 16.0163 1.61483 18.8613C2.18075 21.7064 3.57761 24.3197 5.62878 26.3709C7.67995 28.4221 10.2933 29.8189 13.1384 30.3849C15.9834 30.9508 18.9324 30.6603 21.6124 29.5502C24.2924 28.4402 26.583 26.5603 28.1946 24.1484C29.8062 21.7365 30.6664 18.9008 30.6664 16C30.6618 12.1116 29.1151 8.38372 26.3655 5.63418C23.616 2.88464 19.8881 1.33793 15.9997 1.33335ZM15.9997 28C13.6263 28 11.3062 27.2962 9.33284 25.9776C7.35945 24.6591 5.82138 22.7849 4.91313 20.5922C4.00488 18.3995 3.76724 15.9867 4.23026 13.6589C4.69328 11.3312 5.83617 9.19296 7.5144 7.51473C9.19263 5.8365 11.3308 4.69361 13.6586 4.23059C15.9864 3.76757 18.3992 4.00521 20.5919 4.91346C22.7846 5.82171 24.6587 7.35978 25.9773 9.33317C27.2959 11.3066 27.9997 13.6266 27.9997 16C27.9962 19.1815 26.7307 22.2317 24.4811 24.4814C22.2314 26.7311 19.1812 27.9965 15.9997 28Z" fill="#464255"></path>
										<path d="M21.7648 11.684L14.7061 18.1546L11.6088 15.0573C11.4858 14.93 11.3387 14.8284 11.176 14.7585C11.0133 14.6886 10.8384 14.6518 10.6613 14.6503C10.4843 14.6488 10.3087 14.6825 10.1449 14.7495C9.98099 14.8166 9.83212 14.9156 9.70693 15.0408C9.58174 15.166 9.48274 15.3148 9.41569 15.4787C9.34865 15.6426 9.31492 15.8181 9.31646 15.9952C9.318 16.1722 9.35478 16.3472 9.42466 16.5098C9.49453 16.6725 9.59611 16.8196 9.72346 16.9426L13.7235 20.9426C13.9664 21.1857 14.2939 21.3255 14.6374 21.3329C14.981 21.3404 15.3142 21.2149 15.5675 20.9826L23.5675 13.6493C23.8281 13.4103 23.9831 13.0775 23.9983 12.7241C24.0136 12.3708 23.8878 12.0259 23.6488 11.7653C23.4097 11.5047 23.077 11.3497 22.7236 11.3344C22.3703 11.3192 22.0254 11.4449 21.7648 11.684Z" fill="#464255"></path>
									</svg>
