<svg xmlns="http://www.w3.org/2000/svg" width="32" height="32" viewBox="0 0 32 32" fill="none">
										<path d="M26.9908 5.10791C26.7542 4.84524 26.4229 4.68728 26.0699 4.66878C25.7168 4.65027 25.3709 4.77274 25.1081 5.00925L12.7148 16.1626L6.94277 10.3906C6.81978 10.2632 6.67265 10.1617 6.50998 10.0918C6.34731 10.0219 6.17235 9.98512 5.99531 9.98358C5.81827 9.98204 5.6427 10.0158 5.47884 10.0828C5.31497 10.1499 5.16611 10.2489 5.04091 10.3741C4.91572 10.4992 4.81672 10.6481 4.74968 10.812C4.68264 10.9758 4.6489 11.1514 4.65044 11.3285C4.65198 11.5055 4.68876 11.6804 4.75864 11.8431C4.82852 12.0058 4.93009 12.1529 5.05744 12.2759L11.7241 18.9426C11.9656 19.184 12.2905 19.3235 12.6319 19.3325C12.9732 19.3414 13.305 19.219 13.5588 18.9906L26.8921 6.99058C27.1548 6.75397 27.3127 6.42272 27.3312 6.06968C27.3498 5.71663 27.2273 5.37069 26.9908 5.10791Z" fill="#464255"></path>
										<path d="M25.1085 13.0093L12.7152 24.1626L6.94321 18.3906C6.69174 18.1478 6.35494 18.0134 6.00534 18.0164C5.65575 18.0195 5.32133 18.1597 5.07412 18.4069C4.82691 18.6541 4.68668 18.9885 4.68364 19.3381C4.68061 19.6877 4.815 20.0245 5.05788 20.276L11.7245 26.9426C11.966 27.1841 12.291 27.3236 12.6323 27.3325C12.9737 27.3415 13.3054 27.2191 13.5592 26.9906L26.8925 14.9906C27.1473 14.752 27.2983 14.423 27.3131 14.0742C27.3279 13.7255 27.2054 13.3848 26.9718 13.1254C26.7383 12.866 26.4123 12.7086 26.0639 12.6868C25.7155 12.6651 25.3725 12.7809 25.1085 13.0093Z" fill="#464255"></path>
									  </svg>
