<svg xmlns="http://www.w3.org/2000/svg" width="32" height="32" viewBox="0 0 32 32" fill="none">
										<path d="M15.9997 1.33322C13.0989 1.33322 10.2632 2.1934 7.85132 3.805C5.4394 5.41659 3.55953 7.70721 2.44945 10.3872C1.33936 13.0672 1.04891 16.0162 1.61483 18.8612C2.18075 21.7063 3.57761 24.3196 5.62878 26.3708C7.67995 28.422 10.2933 29.8188 13.1384 30.3847C15.9834 30.9506 18.9324 30.6602 21.6124 29.5501C24.2924 28.44 26.583 26.5602 28.1946 24.1482C29.8062 21.7363 30.6664 18.9007 30.6664 15.9999C30.6618 12.1115 29.1151 8.38359 26.3655 5.63405C23.616 2.88451 19.8881 1.3378 15.9997 1.33322ZM15.9997 27.9999C13.6263 27.9999 11.3062 27.2961 9.33284 25.9775C7.35945 24.6589 5.82138 22.7848 4.91313 20.5921C4.00488 18.3994 3.76724 15.9866 4.23026 13.6588C4.69328 11.331 5.83617 9.19283 7.5144 7.5146C9.19263 5.83637 11.3308 4.69348 13.6586 4.23046C15.9864 3.76744 18.3992 4.00508 20.5919 4.91333C22.7846 5.82158 24.6587 7.35965 25.9773 9.33304C27.2959 11.3064 27.9997 13.6265 27.9997 15.9999C27.9958 19.1813 26.7303 22.2313 24.4807 24.4809C22.2311 26.7305 19.1811 27.996 15.9997 27.9999Z" fill="#464255"></path>
										<path d="M16.0003 8.00001C15.6467 8.00001 15.3076 8.14048 15.0575 8.39053C14.8075 8.64058 14.667 8.97972 14.667 9.33334V18.6667C14.667 19.0203 14.8075 19.3594 15.0575 19.6095C15.3076 19.8595 15.6467 20 16.0003 20C16.354 20 16.6931 19.8595 16.9431 19.6095C17.1932 19.3594 17.3337 19.0203 17.3337 18.6667V9.33334C17.3337 8.97972 17.1932 8.64058 16.9431 8.39053C16.6931 8.14048 16.354 8.00001 16.0003 8.00001Z" fill="#464255"></path>
										<path d="M16.0003 23.9999C16.7367 23.9999 17.3337 23.403 17.3337 22.6666C17.3337 21.9302 16.7367 21.3332 16.0003 21.3332C15.2639 21.3332 14.667 21.9302 14.667 22.6666C14.667 23.403 15.2639 23.9999 16.0003 23.9999Z" fill="#464255"></path>
									</svg>
